{
	"asset":{
		"copyright":"Vladimir Shaleev",
		"generator":"Khronos glTF Blender I/O v4.3.47",
		"version":"2.0"
	},
	"scene":0,
	"scenes":[
		{
			"name":"Scene",
			"nodes":[
				2,
				3
			]
		}
	],
	"nodes":[
		{
			"mesh":0,
			"name":"Cone",
			"translation":[
				0.8600630760192871,
				-0.18037009239196777,
				-5.110730171203613
			]
		},
		{
			"mesh":1,
			"name":"Sphere",
			"translation":[
				-3.3606934547424316,
				0.3542487621307373,
				-4.266679763793945
			]
		},
		{
			"children":[
				0,
				1
			],
			"mesh":2,
			"name":"Cube",
			"translation":[
				-0.3935418128967285,
				1.6722872257232666,
				0.24904370307922363
			]
		},
		{
			"mesh":3,
			"name":"Cylinder",
			"translation":[
				4.086303234100342,
				1.2290010452270508,
				0.9304983615875244
			]
		}
	],
	"meshes":[
		{
			"name":"Cone",
			"primitives":[
				{
					"attributes":{
						"POSITION":0,
						"NORMAL":1,
						"TEXCOORD_0":2,
						"TANGENT":3
					},
					"indices":4
				}
			]
		},
		{
			"name":"Sphere",
			"primitives":[
				{
					"attributes":{
						"POSITION":5,
						"NORMAL":6,
						"TEXCOORD_0":7,
						"TANGENT":8
					},
					"indices":9
				}
			]
		},
		{
			"name":"Cube.001",
			"primitives":[
				{
					"attributes":{
						"POSITION":10,
						"NORMAL":11,
						"TEXCOORD_0":12,
						"TANGENT":13
					},
					"indices":14
				}
			]
		},
		{
			"name":"Cylinder",
			"primitives":[
				{
					"attributes":{
						"POSITION":15,
						"NORMAL":16,
						"TEXCOORD_0":17,
						"TANGENT":18
					},
					"indices":19
				}
			]
		}
	],
	"accessors":[
		{
			"bufferView":0,
			"componentType":5126,
			"count":128,
			"max":[
				1.807234764099121,
				1.4919171333312988,
				1.5222039222717285
			],
			"min":[
				-1.807234764099121,
				-1.4919171333312988,
				-1.5222039222717285
			],
			"type":"VEC3"
		},
		{
			"bufferView":1,
			"componentType":5126,
			"count":128,
			"type":"VEC3"
		},
		{
			"bufferView":2,
			"componentType":5126,
			"count":128,
			"type":"VEC2"
		},
		{
			"bufferView":3,
			"componentType":5126,
			"count":128,
			"type":"VEC4"
		},
		{
			"bufferView":4,
			"componentType":5123,
			"count":186,
			"type":"SCALAR"
		},
		{
			"bufferView":5,
			"componentType":5126,
			"count":2014,
			"max":[
				2.026536226272583,
				2.0265369415283203,
				2.0265355110168457
			],
			"min":[
				-2.0265350341796875,
				-2.0265369415283203,
				-2.0265369415283203
			],
			"type":"VEC3"
		},
		{
			"bufferView":6,
			"componentType":5126,
			"count":2014,
			"type":"VEC3"
		},
		{
			"bufferView":7,
			"componentType":5126,
			"count":2014,
			"type":"VEC2"
		},
		{
			"bufferView":8,
			"componentType":5126,
			"count":2014,
			"type":"VEC4"
		},
		{
			"bufferView":9,
			"componentType":5123,
			"count":2880,
			"type":"SCALAR"
		},
		{
			"bufferView":10,
			"componentType":5126,
			"count":24,
			"max":[
				1.2858214378356934,
				1.6722872257232666,
				0.8598687648773193
			],
			"min":[
				-1.2858214378356934,
				-1.6722872257232666,
				-0.8598687648773193
			],
			"type":"VEC3"
		},
		{
			"bufferView":11,
			"componentType":5126,
			"count":24,
			"type":"VEC3"
		},
		{
			"bufferView":12,
			"componentType":5126,
			"count":24,
			"type":"VEC2"
		},
		{
			"bufferView":13,
			"componentType":5126,
			"count":24,
			"type":"VEC4"
		},
		{
			"bufferView":14,
			"componentType":5123,
			"count":36,
			"type":"SCALAR"
		},
		{
			"bufferView":15,
			"componentType":5126,
			"count":192,
			"max":[
				1.306678295135498,
				1.2290010452270508,
				1.2040865421295166
			],
			"min":[
				-1.306678295135498,
				-1.2290010452270508,
				-1.2040865421295166
			],
			"type":"VEC3"
		},
		{
			"bufferView":16,
			"componentType":5126,
			"count":192,
			"type":"VEC3"
		},
		{
			"bufferView":17,
			"componentType":5126,
			"count":192,
			"type":"VEC2"
		},
		{
			"bufferView":18,
			"componentType":5126,
			"count":192,
			"type":"VEC4"
		},
		{
			"bufferView":19,
			"componentType":5123,
			"count":372,
			"type":"SCALAR"
		}
	],
	"bufferViews":[
		{
			"buffer":0,
			"byteLength":1536,
			"byteOffset":0,
			"target":34962
		},
		{
			"buffer":0,
			"byteLength":1536,
			"byteOffset":1536,
			"target":34962
		},
		{
			"buffer":0,
			"byteLength":1024,
			"byteOffset":3072,
			"target":34962
		},
		{
			"buffer":0,
			"byteLength":2048,
			"byteOffset":4096,
			"target":34962
		},
		{
			"buffer":0,
			"byteLength":372,
			"byteOffset":6144,
			"target":34963
		},
		{
			"buffer":0,
			"byteLength":24168,
			"byteOffset":6516,
			"target":34962
		},
		{
			"buffer":0,
			"byteLength":24168,
			"byteOffset":30684,
			"target":34962
		},
		{
			"buffer":0,
			"byteLength":16112,
			"byteOffset":54852,
			"target":34962
		},
		{
			"buffer":0,
			"byteLength":32224,
			"byteOffset":70964,
			"target":34962
		},
		{
			"buffer":0,
			"byteLength":5760,
			"byteOffset":103188,
			"target":34963
		},
		{
			"buffer":0,
			"byteLength":288,
			"byteOffset":108948,
			"target":34962
		},
		{
			"buffer":0,
			"byteLength":288,
			"byteOffset":109236,
			"target":34962
		},
		{
			"buffer":0,
			"byteLength":192,
			"byteOffset":109524,
			"target":34962
		},
		{
			"buffer":0,
			"byteLength":384,
			"byteOffset":109716,
			"target":34962
		},
		{
			"buffer":0,
			"byteLength":72,
			"byteOffset":110100,
			"target":34963
		},
		{
			"buffer":0,
			"byteLength":2304,
			"byteOffset":110172,
			"target":34962
		},
		{
			"buffer":0,
			"byteLength":2304,
			"byteOffset":112476,
			"target":34962
		},
		{
			"buffer":0,
			"byteLength":1536,
			"byteOffset":114780,
			"target":34962
		},
		{
			"buffer":0,
			"byteLength":3072,
			"byteOffset":116316,
			"target":34962
		},
		{
			"buffer":0,
			"byteLength":744,
			"byteOffset":119388,
			"target":34963
		}
	],
	"buffers":[
		{
			"byteLength":120132,
			"uri":"model1.bin"
		}
	]
}
