{
	"asset":{
		"copyright":"Vladimir Shaleev",
		"generator":"Khronos glTF Blender I/O v4.3.47",
		"version":"2.0"
	},
	"scene":0,
	"scenes":[
		{
			"name":"Scene",
			"nodes":[
				0
			]
		}
	],
	"nodes":[
		{
			"mesh":0,
			"name":"Cube",
			"translation":[
				-0.10793066024780273,
				1.6777772903442383,
				0.12944960594177246
			]
		}
	],
	"meshes":[
		{
			"name":"Cube.001",
			"primitives":[
				{
					"attributes":{
						"POSITION":0,
						"NORMAL":1,
						"TEXCOORD_0":2,
						"TANGENT":3
					},
					"indices":4
				}
			]
		}
	],
	"accessors":[
		{
			"bufferView":0,
			"componentType":5126,
			"count":6369,
			"max":[
				2.29939341545105,
				3.0097153186798096,
				3.584091901779175
			],
			"min":[
				-2.408231735229492,
				-2.8741226196289062,
				-2.890463352203369
			],
			"type":"VEC3"
		},
		{
			"bufferView":1,
			"componentType":5126,
			"count":6369,
			"type":"VEC3"
		},
		{
			"bufferView":2,
			"componentType":5126,
			"count":6369,
			"type":"VEC2"
		},
		{
			"bufferView":3,
			"componentType":5126,
			"count":6369,
			"type":"VEC4"
		},
		{
			"bufferView":4,
			"componentType":5123,
			"count":36864,
			"type":"SCALAR"
		}
	],
	"bufferViews":[
		{
			"buffer":0,
			"byteLength":76428,
			"byteOffset":0,
			"target":34962
		},
		{
			"buffer":0,
			"byteLength":76428,
			"byteOffset":76428,
			"target":34962
		},
		{
			"buffer":0,
			"byteLength":50952,
			"byteOffset":152856,
			"target":34962
		},
		{
			"buffer":0,
			"byteLength":101904,
			"byteOffset":203808,
			"target":34962
		},
		{
			"buffer":0,
			"byteLength":73728,
			"byteOffset":305712,
			"target":34963
		}
	],
	"buffers":[
		{
			"byteLength":379440,
			"uri":"model2.bin"
		}
	]
}
