{
	"asset":{
		"copyright":"Vladimir Shaleev",
		"generator":"Khronos glTF Blender I/O v4.3.47",
		"version":"2.0"
	},
	"scene":0,
	"scenes":[
		{
			"name":"Scene",
			"nodes":[
				4,
				5
			]
		}
	],
	"nodes":[
		{
			"mesh":0,
			"name":"wheel_lb",
			"translation":[
				0.9415671229362488,
				-1.7345337867736816,
				2.1259021759033203
			]
		},
		{
			"mesh":1,
			"name":"wheel_lf",
			"translation":[
				1.0479501485824585,
				-1.7345337867736816,
				-1.7622283697128296
			]
		},
		{
			"mesh":2,
			"name":"wheel_rb",
			"translation":[
				-0.9415658712387085,
				-1.7345328330993652,
				2.1259021759033203
			]
		},
		{
			"mesh":3,
			"name":"wheel_rf",
			"translation":[
				-1.0479499101638794,
				-1.7345337867736816,
				-1.7622283697128296
			]
		},
		{
			"children":[
				0,
				1,
				2,
				3
			],
			"mesh":4,
			"name":"vehicle|ch|6000.0",
			"translation":[
				0,
				2.1582398414611816,
				-0.5200678110122681
			]
		},
		{
			"mesh":5,
			"name":"vehicle_collider_ch",
			"translation":[
				0,
				2.160524845123291,
				-0.5200678110122681
			]
		}
	],
	"materials":[
		{
			"doubleSided":true,
			"name":"base",
			"normalTexture":{
				"index":0
			},
			"pbrMetallicRoughness":{
				"baseColorTexture":{
					"index":1
				},
				"metallicRoughnessTexture":{
					"index":2
				}
			}
		},
		{
			"doubleSided":true,
			"name":"convex_hull_0",
			"pbrMetallicRoughness":{
				"baseColorFactor":[
					0.800070583820343,
					0.020755648612976074,
					0.37616777420043945,
					1
				],
				"metallicFactor":0,
				"roughnessFactor":0.5
			}
		},
		{
			"doubleSided":true,
			"name":"convex_hull_1",
			"pbrMetallicRoughness":{
				"baseColorFactor":[
					0.0018534280825406313,
					0.011018316261470318,
					0.8001489639282227,
					1
				],
				"metallicFactor":0,
				"roughnessFactor":0.5
			}
		},
		{
			"doubleSided":true,
			"name":"convex_hull_2",
			"pbrMetallicRoughness":{
				"baseColorFactor":[
					0,
					0.8001260757446289,
					0.02485126629471779,
					1
				],
				"metallicFactor":0,
				"roughnessFactor":0.5
			}
		},
		{
			"doubleSided":true,
			"name":"convex_hull_3",
			"pbrMetallicRoughness":{
				"baseColorFactor":[
					0.800070583820343,
					0.13940012454986572,
					0,
					1
				],
				"metallicFactor":0,
				"roughnessFactor":0.5
			}
		},
		{
			"doubleSided":true,
			"name":"convex_hull_4",
			"pbrMetallicRoughness":{
				"baseColorFactor":[
					0.800133466720581,
					0,
					0.0007879070471972227,
					1
				],
				"metallicFactor":0,
				"roughnessFactor":0.5
			}
		},
		{
			"doubleSided":true,
			"name":"convex_hull_5",
			"pbrMetallicRoughness":{
				"baseColorFactor":[
					0,
					0.5048204064369202,
					0.8001648187637329,
					1
				],
				"metallicFactor":0,
				"roughnessFactor":0.5
			}
		},
		{
			"doubleSided":true,
			"name":"convex_hull_6",
			"pbrMetallicRoughness":{
				"baseColorFactor":[
					0.8000626564025879,
					0.5331251621246338,
					0,
					1
				],
				"metallicFactor":0,
				"roughnessFactor":0.5
			}
		},
		{
			"doubleSided":true,
			"name":"convex_hull_7",
			"pbrMetallicRoughness":{
				"baseColorFactor":[
					0.8001965880393982,
					0,
					0.6806434392929077,
					1
				],
				"metallicFactor":0,
				"roughnessFactor":0.5
			}
		},
		{
			"doubleSided":true,
			"name":"convex_hull_8",
			"pbrMetallicRoughness":{
				"baseColorFactor":[
					0,
					0.8002041578292847,
					0.8002041578292847,
					1
				],
				"metallicFactor":0,
				"roughnessFactor":0.5
			}
		},
		{
			"doubleSided":true,
			"name":"convex_hull_9",
			"pbrMetallicRoughness":{
				"baseColorFactor":[
					0.8000473976135254,
					0,
					0.002308461582288146,
					1
				],
				"metallicFactor":0,
				"roughnessFactor":0.5
			}
		},
		{
			"doubleSided":true,
			"name":"convex_hull_10",
			"pbrMetallicRoughness":{
				"baseColorFactor":[
					0.8001260757446289,
					0.2823634147644043,
					0,
					1
				],
				"metallicFactor":0,
				"roughnessFactor":0.5
			}
		},
		{
			"doubleSided":true,
			"name":"convex_hull_11",
			"pbrMetallicRoughness":{
				"baseColorFactor":[
					0.012340329587459564,
					0,
					0.8001416921615601,
					1
				],
				"metallicFactor":0,
				"roughnessFactor":0.5
			}
		},
		{
			"doubleSided":true,
			"name":"convex_hull_12",
			"pbrMetallicRoughness":{
				"baseColorFactor":[
					0.3355241119861603,
					0,
					0.8001810312271118,
					1
				],
				"metallicFactor":0,
				"roughnessFactor":0.5
			}
		},
		{
			"doubleSided":true,
			"name":"convex_hull_13",
			"pbrMetallicRoughness":{
				"baseColorFactor":[
					0.27691736817359924,
					0.8002749681472778,
					0.470425546169281,
					1
				],
				"metallicFactor":0,
				"roughnessFactor":0.5
			}
		}
	],
	"meshes":[
		{
			"name":"wheel_lb",
			"primitives":[
				{
					"attributes":{
						"POSITION":0,
						"NORMAL":1,
						"TEXCOORD_0":2,
						"TANGENT":3
					},
					"indices":4,
					"material":0
				}
			]
		},
		{
			"name":"wheel_lf",
			"primitives":[
				{
					"attributes":{
						"POSITION":5,
						"NORMAL":6,
						"TEXCOORD_0":7,
						"TANGENT":8
					},
					"indices":9,
					"material":0
				}
			]
		},
		{
			"name":"wheel_rb",
			"primitives":[
				{
					"attributes":{
						"POSITION":10,
						"NORMAL":11,
						"TEXCOORD_0":12,
						"TANGENT":13
					},
					"indices":14,
					"material":0
				}
			]
		},
		{
			"name":"wheel_rf",
			"primitives":[
				{
					"attributes":{
						"POSITION":15,
						"NORMAL":16,
						"TEXCOORD_0":17,
						"TANGENT":18
					},
					"indices":19,
					"material":0
				}
			]
		},
		{
			"name":"vehicle",
			"primitives":[
				{
					"attributes":{
						"POSITION":20,
						"NORMAL":21,
						"TEXCOORD_0":22,
						"TANGENT":23
					},
					"indices":24,
					"material":0
				}
			]
		},
		{
			"name":"vehicle_collider_ch",
			"primitives":[
				{
					"attributes":{
						"POSITION":25,
						"NORMAL":26,
						"TEXCOORD_0":27,
						"TANGENT":28
					},
					"indices":29,
					"material":1
				},
				{
					"attributes":{
						"POSITION":30,
						"NORMAL":31,
						"TEXCOORD_0":32,
						"TANGENT":33
					},
					"indices":34,
					"material":2
				},
				{
					"attributes":{
						"POSITION":35,
						"NORMAL":36,
						"TEXCOORD_0":37,
						"TANGENT":38
					},
					"indices":39,
					"material":3
				},
				{
					"attributes":{
						"POSITION":40,
						"NORMAL":41,
						"TEXCOORD_0":42,
						"TANGENT":43
					},
					"indices":44,
					"material":4
				},
				{
					"attributes":{
						"POSITION":45,
						"NORMAL":46,
						"TEXCOORD_0":47,
						"TANGENT":48
					},
					"indices":49,
					"material":5
				},
				{
					"attributes":{
						"POSITION":50,
						"NORMAL":51,
						"TEXCOORD_0":52,
						"TANGENT":53
					},
					"indices":54,
					"material":6
				},
				{
					"attributes":{
						"POSITION":55,
						"NORMAL":56,
						"TEXCOORD_0":57,
						"TANGENT":58
					},
					"indices":59,
					"material":7
				},
				{
					"attributes":{
						"POSITION":60,
						"NORMAL":61,
						"TEXCOORD_0":62,
						"TANGENT":63
					},
					"indices":64,
					"material":8
				},
				{
					"attributes":{
						"POSITION":65,
						"NORMAL":66,
						"TEXCOORD_0":67,
						"TANGENT":68
					},
					"indices":69,
					"material":9
				},
				{
					"attributes":{
						"POSITION":70,
						"NORMAL":71,
						"TEXCOORD_0":72,
						"TANGENT":73
					},
					"indices":74,
					"material":10
				},
				{
					"attributes":{
						"POSITION":75,
						"NORMAL":76,
						"TEXCOORD_0":77,
						"TANGENT":78
					},
					"indices":79,
					"material":11
				},
				{
					"attributes":{
						"POSITION":80,
						"NORMAL":81,
						"TEXCOORD_0":82,
						"TANGENT":83
					},
					"indices":84,
					"material":12
				},
				{
					"attributes":{
						"POSITION":85,
						"NORMAL":86,
						"TEXCOORD_0":87,
						"TANGENT":88
					},
					"indices":89,
					"material":13
				},
				{
					"attributes":{
						"POSITION":90,
						"NORMAL":91,
						"TEXCOORD_0":92,
						"TANGENT":93
					},
					"indices":94,
					"material":14
				}
			]
		}
	],
	"textures":[
		{
			"sampler":0,
			"source":0
		},
		{
			"sampler":0,
			"source":1
		},
		{
			"sampler":0,
			"source":2
		}
	],
	"images":[
		{
			"mimeType":"image/png",
			"name":"normal",
			"uri":"normal.png"
		},
		{
			"mimeType":"image/png",
			"name":"truck",
			"uri":"base.png"
		},
		{
			"mimeType":"image/png",
			"name":"metallic-roughness",
			"uri":"metallic-roughness.png"
		}
	],
	"accessors":[
		{
			"bufferView":0,
			"componentType":5126,
			"count":344,
			"max":[
				0.30151456594467163,
				0.4508991241455078,
				0.44404900074005127
			],
			"min":[
				-0.3020498752593994,
				-0.42370668053627014,
				-0.44404900074005127
			],
			"type":"VEC3"
		},
		{
			"bufferView":1,
			"componentType":5126,
			"count":344,
			"type":"VEC3"
		},
		{
			"bufferView":2,
			"componentType":5126,
			"count":344,
			"type":"VEC2"
		},
		{
			"bufferView":3,
			"componentType":5126,
			"count":344,
			"type":"VEC4"
		},
		{
			"bufferView":4,
			"componentType":5123,
			"count":1380,
			"type":"SCALAR"
		},
		{
			"bufferView":5,
			"componentType":5126,
			"count":181,
			"max":[
				0.17918026447296143,
				0.4508991837501526,
				0.44404900074005127
			],
			"min":[
				-0.17986798286437988,
				-0.42370665073394775,
				-0.4440488815307617
			],
			"type":"VEC3"
		},
		{
			"bufferView":6,
			"componentType":5126,
			"count":181,
			"type":"VEC3"
		},
		{
			"bufferView":7,
			"componentType":5126,
			"count":181,
			"type":"VEC2"
		},
		{
			"bufferView":8,
			"componentType":5126,
			"count":181,
			"type":"VEC4"
		},
		{
			"bufferView":9,
			"componentType":5123,
			"count":744,
			"type":"SCALAR"
		},
		{
			"bufferView":10,
			"componentType":5126,
			"count":344,
			"max":[
				0.3020498752593994,
				0.4508991539478302,
				0.44404900074005127
			],
			"min":[
				-0.3015146255493164,
				-0.42370665073394775,
				-0.44404900074005127
			],
			"type":"VEC3"
		},
		{
			"bufferView":11,
			"componentType":5126,
			"count":344,
			"type":"VEC3"
		},
		{
			"bufferView":12,
			"componentType":5126,
			"count":344,
			"type":"VEC2"
		},
		{
			"bufferView":13,
			"componentType":5126,
			"count":344,
			"type":"VEC4"
		},
		{
			"bufferView":14,
			"componentType":5123,
			"count":1380,
			"type":"SCALAR"
		},
		{
			"bufferView":15,
			"componentType":5126,
			"count":181,
			"max":[
				0.17986798286437988,
				0.4508991837501526,
				0.44404900074005127
			],
			"min":[
				-0.17918026447296143,
				-0.42370665073394775,
				-0.4440488815307617
			],
			"type":"VEC3"
		},
		{
			"bufferView":16,
			"componentType":5126,
			"count":181,
			"type":"VEC3"
		},
		{
			"bufferView":17,
			"componentType":5126,
			"count":181,
			"type":"VEC2"
		},
		{
			"bufferView":18,
			"componentType":5126,
			"count":181,
			"type":"VEC4"
		},
		{
			"bufferView":19,
			"componentType":5123,
			"count":744,
			"type":"SCALAR"
		},
		{
			"bufferView":20,
			"componentType":5126,
			"count":1613,
			"max":[
				1.2892189025878906,
				1.7690895795822144,
				2.973738193511963
			],
			"min":[
				-1.2892189025878906,
				-1.769089698791504,
				-2.973738193511963
			],
			"type":"VEC3"
		},
		{
			"bufferView":21,
			"componentType":5126,
			"count":1613,
			"type":"VEC3"
		},
		{
			"bufferView":22,
			"componentType":5126,
			"count":1613,
			"type":"VEC2"
		},
		{
			"bufferView":23,
			"componentType":5126,
			"count":1613,
			"type":"VEC4"
		},
		{
			"bufferView":24,
			"componentType":5123,
			"count":4314,
			"type":"SCALAR"
		},
		{
			"bufferView":25,
			"componentType":5126,
			"count":70,
			"max":[
				0.960098147392273,
				-1.3375581502914429,
				2.973738193511963
			],
			"min":[
				-0.9600988030433655,
				-1.7368183135986328,
				0.4799315929412842
			],
			"type":"VEC3"
		},
		{
			"bufferView":26,
			"componentType":5126,
			"count":70,
			"type":"VEC3"
		},
		{
			"bufferView":27,
			"componentType":5126,
			"count":70,
			"type":"VEC2"
		},
		{
			"bufferView":28,
			"componentType":5126,
			"count":70,
			"type":"VEC4"
		},
		{
			"bufferView":29,
			"componentType":5123,
			"count":96,
			"type":"SCALAR"
		},
		{
			"bufferView":30,
			"componentType":5126,
			"count":53,
			"max":[
				1.041654109954834,
				-1.097795009613037,
				2.8412251472473145
			],
			"min":[
				0.5990135073661804,
				-1.7368184328079224,
				1.4495760202407837
			],
			"type":"VEC3"
		},
		{
			"bufferView":31,
			"componentType":5126,
			"count":53,
			"type":"VEC3"
		},
		{
			"bufferView":32,
			"componentType":5126,
			"count":53,
			"type":"VEC2"
		},
		{
			"bufferView":33,
			"componentType":5126,
			"count":53,
			"type":"VEC4"
		},
		{
			"bufferView":34,
			"componentType":5123,
			"count":72,
			"type":"SCALAR"
		},
		{
			"bufferView":35,
			"componentType":5126,
			"count":48,
			"max":[
				-0.5990144610404968,
				-1.097795009613037,
				2.8412251472473145
			],
			"min":[
				-1.0416548252105713,
				-1.7368184328079224,
				1.4495760202407837
			],
			"type":"VEC3"
		},
		{
			"bufferView":36,
			"componentType":5126,
			"count":48,
			"type":"VEC3"
		},
		{
			"bufferView":37,
			"componentType":5126,
			"count":48,
			"type":"VEC2"
		},
		{
			"bufferView":38,
			"componentType":5126,
			"count":48,
			"type":"VEC4"
		},
		{
			"bufferView":39,
			"componentType":5123,
			"count":72,
			"type":"SCALAR"
		},
		{
			"bufferView":40,
			"componentType":5126,
			"count":56,
			"max":[
				1.2892189025878906,
				-1.0977951288223267,
				-1.0644768476486206
			],
			"min":[
				-1.2892189025878906,
				-1.736818552017212,
				-2.4561262130737305
			],
			"type":"VEC3"
		},
		{
			"bufferView":41,
			"componentType":5126,
			"count":56,
			"type":"VEC3"
		},
		{
			"bufferView":42,
			"componentType":5126,
			"count":56,
			"type":"VEC2"
		},
		{
			"bufferView":43,
			"componentType":5126,
			"count":56,
			"type":"VEC4"
		},
		{
			"bufferView":44,
			"componentType":5123,
			"count":72,
			"type":"SCALAR"
		},
		{
			"bufferView":45,
			"componentType":5126,
			"count":68,
			"max":[
				1.2030956745147705,
				-0.5647475719451904,
				-1.1455812454223633
			],
			"min":[
				-1.2030963897705078,
				-1.117637038230896,
				-1.4561359882354736
			],
			"type":"VEC3"
		},
		{
			"bufferView":46,
			"componentType":5126,
			"count":68,
			"type":"VEC3"
		},
		{
			"bufferView":47,
			"componentType":5126,
			"count":68,
			"type":"VEC2"
		},
		{
			"bufferView":48,
			"componentType":5126,
			"count":68,
			"type":"VEC4"
		},
		{
			"bufferView":49,
			"componentType":5123,
			"count":84,
			"type":"SCALAR"
		},
		{
			"bufferView":50,
			"componentType":5126,
			"count":56,
			"max":[
				1.127859115600586,
				-1.4174444675445557,
				0.2504364252090454
			],
			"min":[
				-1.1278598308563232,
				-1.683868646621704,
				-0.44537353515625
			],
			"type":"VEC3"
		},
		{
			"bufferView":51,
			"componentType":5126,
			"count":56,
			"type":"VEC3"
		},
		{
			"bufferView":52,
			"componentType":5126,
			"count":56,
			"type":"VEC2"
		},
		{
			"bufferView":53,
			"componentType":5126,
			"count":56,
			"type":"VEC4"
		},
		{
			"bufferView":54,
			"componentType":5123,
			"count":72,
			"type":"SCALAR"
		},
		{
			"bufferView":55,
			"componentType":5126,
			"count":38,
			"max":[
				0.8465783596038818,
				0.8803718090057373,
				0.4799315929412842
			],
			"min":[
				-0.8465793132781982,
				-1.7368184328079224,
				-1.0268681049346924
			],
			"type":"VEC3"
		},
		{
			"bufferView":56,
			"componentType":5126,
			"count":38,
			"type":"VEC3"
		},
		{
			"bufferView":57,
			"componentType":5126,
			"count":38,
			"type":"VEC2"
		},
		{
			"bufferView":58,
			"componentType":5126,
			"count":38,
			"type":"VEC4"
		},
		{
			"bufferView":59,
			"componentType":5123,
			"count":48,
			"type":"SCALAR"
		},
		{
			"bufferView":60,
			"componentType":5126,
			"count":36,
			"max":[
				0.8465783596038818,
				-0.5647475719451904,
				-1.0268678665161133
			],
			"min":[
				-0.8465789556503296,
				-1.736818552017212,
				-2.859083652496338
			],
			"type":"VEC3"
		},
		{
			"bufferView":61,
			"componentType":5126,
			"count":36,
			"type":"VEC3"
		},
		{
			"bufferView":62,
			"componentType":5126,
			"count":36,
			"type":"VEC2"
		},
		{
			"bufferView":63,
			"componentType":5126,
			"count":36,
			"type":"VEC4"
		},
		{
			"bufferView":64,
			"componentType":5123,
			"count":54,
			"type":"SCALAR"
		},
		{
			"bufferView":65,
			"componentType":5126,
			"count":44,
			"max":[
				0.9684642553329468,
				-1.389867901802063,
				-2.620151996612549
			],
			"min":[
				-0.9684645533561707,
				-1.771376132965088,
				-2.973738193511963
			],
			"type":"VEC3"
		},
		{
			"bufferView":66,
			"componentType":5126,
			"count":44,
			"type":"VEC3"
		},
		{
			"bufferView":67,
			"componentType":5126,
			"count":44,
			"type":"VEC2"
		},
		{
			"bufferView":68,
			"componentType":5126,
			"count":44,
			"type":"VEC4"
		},
		{
			"bufferView":69,
			"componentType":5123,
			"count":60,
			"type":"SCALAR"
		},
		{
			"bufferView":70,
			"componentType":5126,
			"count":32,
			"max":[
				1.187927484512329,
				0.060027122497558594,
				-0.77825927734375
			],
			"min":[
				-1.1879281997680664,
				-0.3798825740814209,
				-0.8359649181365967
			],
			"type":"VEC3"
		},
		{
			"bufferView":71,
			"componentType":5126,
			"count":32,
			"type":"VEC3"
		},
		{
			"bufferView":72,
			"componentType":5126,
			"count":32,
			"type":"VEC2"
		},
		{
			"bufferView":73,
			"componentType":5126,
			"count":32,
			"type":"VEC4"
		},
		{
			"bufferView":74,
			"componentType":5123,
			"count":42,
			"type":"SCALAR"
		},
		{
			"bufferView":75,
			"componentType":5126,
			"count":39,
			"max":[
				-0.8895058035850525,
				1.3471133708953857,
				0.46849849820137024
			],
			"min":[
				-1.0391533374786377,
				-1.4473202228546143,
				0.3253719210624695
			],
			"type":"VEC3"
		},
		{
			"bufferView":76,
			"componentType":5126,
			"count":39,
			"type":"VEC3"
		},
		{
			"bufferView":77,
			"componentType":5126,
			"count":39,
			"type":"VEC2"
		},
		{
			"bufferView":78,
			"componentType":5126,
			"count":39,
			"type":"VEC4"
		},
		{
			"bufferView":79,
			"componentType":5123,
			"count":51,
			"type":"SCALAR"
		},
		{
			"bufferView":80,
			"componentType":5126,
			"count":36,
			"max":[
				1.0391526222229004,
				1.3471133708953857,
				0.46849849820137024
			],
			"min":[
				0.8895052671432495,
				-1.4473202228546143,
				0.3253719210624695
			],
			"type":"VEC3"
		},
		{
			"bufferView":81,
			"componentType":5126,
			"count":36,
			"type":"VEC3"
		},
		{
			"bufferView":82,
			"componentType":5126,
			"count":36,
			"type":"VEC2"
		},
		{
			"bufferView":83,
			"componentType":5126,
			"count":36,
			"type":"VEC4"
		},
		{
			"bufferView":84,
			"componentType":5123,
			"count":48,
			"type":"SCALAR"
		},
		{
			"bufferView":85,
			"componentType":5126,
			"count":40,
			"max":[
				-0.8895058035850525,
				1.771376132965088,
				0.7281829714775085
			],
			"min":[
				-1.1583349704742432,
				1.322671890258789,
				0.32828980684280396
			],
			"type":"VEC3"
		},
		{
			"bufferView":86,
			"componentType":5126,
			"count":40,
			"type":"VEC3"
		},
		{
			"bufferView":87,
			"componentType":5126,
			"count":40,
			"type":"VEC2"
		},
		{
			"bufferView":88,
			"componentType":5126,
			"count":40,
			"type":"VEC4"
		},
		{
			"bufferView":89,
			"componentType":5123,
			"count":48,
			"type":"SCALAR"
		},
		{
			"bufferView":90,
			"componentType":5126,
			"count":39,
			"max":[
				1.1583342552185059,
				1.771376132965088,
				0.7281829714775085
			],
			"min":[
				0.8895052671432495,
				1.322671890258789,
				0.32828980684280396
			],
			"type":"VEC3"
		},
		{
			"bufferView":91,
			"componentType":5126,
			"count":39,
			"type":"VEC3"
		},
		{
			"bufferView":92,
			"componentType":5126,
			"count":39,
			"type":"VEC2"
		},
		{
			"bufferView":93,
			"componentType":5126,
			"count":39,
			"type":"VEC4"
		},
		{
			"bufferView":94,
			"componentType":5123,
			"count":48,
			"type":"SCALAR"
		}
	],
	"bufferViews":[
		{
			"buffer":0,
			"byteLength":4128,
			"byteOffset":0,
			"target":34962
		},
		{
			"buffer":0,
			"byteLength":4128,
			"byteOffset":4128,
			"target":34962
		},
		{
			"buffer":0,
			"byteLength":2752,
			"byteOffset":8256,
			"target":34962
		},
		{
			"buffer":0,
			"byteLength":5504,
			"byteOffset":11008,
			"target":34962
		},
		{
			"buffer":0,
			"byteLength":2760,
			"byteOffset":16512,
			"target":34963
		},
		{
			"buffer":0,
			"byteLength":2172,
			"byteOffset":19272,
			"target":34962
		},
		{
			"buffer":0,
			"byteLength":2172,
			"byteOffset":21444,
			"target":34962
		},
		{
			"buffer":0,
			"byteLength":1448,
			"byteOffset":23616,
			"target":34962
		},
		{
			"buffer":0,
			"byteLength":2896,
			"byteOffset":25064,
			"target":34962
		},
		{
			"buffer":0,
			"byteLength":1488,
			"byteOffset":27960,
			"target":34963
		},
		{
			"buffer":0,
			"byteLength":4128,
			"byteOffset":29448,
			"target":34962
		},
		{
			"buffer":0,
			"byteLength":4128,
			"byteOffset":33576,
			"target":34962
		},
		{
			"buffer":0,
			"byteLength":2752,
			"byteOffset":37704,
			"target":34962
		},
		{
			"buffer":0,
			"byteLength":5504,
			"byteOffset":40456,
			"target":34962
		},
		{
			"buffer":0,
			"byteLength":2760,
			"byteOffset":45960,
			"target":34963
		},
		{
			"buffer":0,
			"byteLength":2172,
			"byteOffset":48720,
			"target":34962
		},
		{
			"buffer":0,
			"byteLength":2172,
			"byteOffset":50892,
			"target":34962
		},
		{
			"buffer":0,
			"byteLength":1448,
			"byteOffset":53064,
			"target":34962
		},
		{
			"buffer":0,
			"byteLength":2896,
			"byteOffset":54512,
			"target":34962
		},
		{
			"buffer":0,
			"byteLength":1488,
			"byteOffset":57408,
			"target":34963
		},
		{
			"buffer":0,
			"byteLength":19356,
			"byteOffset":58896,
			"target":34962
		},
		{
			"buffer":0,
			"byteLength":19356,
			"byteOffset":78252,
			"target":34962
		},
		{
			"buffer":0,
			"byteLength":12904,
			"byteOffset":97608,
			"target":34962
		},
		{
			"buffer":0,
			"byteLength":25808,
			"byteOffset":110512,
			"target":34962
		},
		{
			"buffer":0,
			"byteLength":8628,
			"byteOffset":136320,
			"target":34963
		},
		{
			"buffer":0,
			"byteLength":840,
			"byteOffset":144948,
			"target":34962
		},
		{
			"buffer":0,
			"byteLength":840,
			"byteOffset":145788,
			"target":34962
		},
		{
			"buffer":0,
			"byteLength":560,
			"byteOffset":146628,
			"target":34962
		},
		{
			"buffer":0,
			"byteLength":1120,
			"byteOffset":147188,
			"target":34962
		},
		{
			"buffer":0,
			"byteLength":192,
			"byteOffset":148308,
			"target":34963
		},
		{
			"buffer":0,
			"byteLength":636,
			"byteOffset":148500,
			"target":34962
		},
		{
			"buffer":0,
			"byteLength":636,
			"byteOffset":149136,
			"target":34962
		},
		{
			"buffer":0,
			"byteLength":424,
			"byteOffset":149772,
			"target":34962
		},
		{
			"buffer":0,
			"byteLength":848,
			"byteOffset":150196,
			"target":34962
		},
		{
			"buffer":0,
			"byteLength":144,
			"byteOffset":151044,
			"target":34963
		},
		{
			"buffer":0,
			"byteLength":576,
			"byteOffset":151188,
			"target":34962
		},
		{
			"buffer":0,
			"byteLength":576,
			"byteOffset":151764,
			"target":34962
		},
		{
			"buffer":0,
			"byteLength":384,
			"byteOffset":152340,
			"target":34962
		},
		{
			"buffer":0,
			"byteLength":768,
			"byteOffset":152724,
			"target":34962
		},
		{
			"buffer":0,
			"byteLength":144,
			"byteOffset":153492,
			"target":34963
		},
		{
			"buffer":0,
			"byteLength":672,
			"byteOffset":153636,
			"target":34962
		},
		{
			"buffer":0,
			"byteLength":672,
			"byteOffset":154308,
			"target":34962
		},
		{
			"buffer":0,
			"byteLength":448,
			"byteOffset":154980,
			"target":34962
		},
		{
			"buffer":0,
			"byteLength":896,
			"byteOffset":155428,
			"target":34962
		},
		{
			"buffer":0,
			"byteLength":144,
			"byteOffset":156324,
			"target":34963
		},
		{
			"buffer":0,
			"byteLength":816,
			"byteOffset":156468,
			"target":34962
		},
		{
			"buffer":0,
			"byteLength":816,
			"byteOffset":157284,
			"target":34962
		},
		{
			"buffer":0,
			"byteLength":544,
			"byteOffset":158100,
			"target":34962
		},
		{
			"buffer":0,
			"byteLength":1088,
			"byteOffset":158644,
			"target":34962
		},
		{
			"buffer":0,
			"byteLength":168,
			"byteOffset":159732,
			"target":34963
		},
		{
			"buffer":0,
			"byteLength":672,
			"byteOffset":159900,
			"target":34962
		},
		{
			"buffer":0,
			"byteLength":672,
			"byteOffset":160572,
			"target":34962
		},
		{
			"buffer":0,
			"byteLength":448,
			"byteOffset":161244,
			"target":34962
		},
		{
			"buffer":0,
			"byteLength":896,
			"byteOffset":161692,
			"target":34962
		},
		{
			"buffer":0,
			"byteLength":144,
			"byteOffset":162588,
			"target":34963
		},
		{
			"buffer":0,
			"byteLength":456,
			"byteOffset":162732,
			"target":34962
		},
		{
			"buffer":0,
			"byteLength":456,
			"byteOffset":163188,
			"target":34962
		},
		{
			"buffer":0,
			"byteLength":304,
			"byteOffset":163644,
			"target":34962
		},
		{
			"buffer":0,
			"byteLength":608,
			"byteOffset":163948,
			"target":34962
		},
		{
			"buffer":0,
			"byteLength":96,
			"byteOffset":164556,
			"target":34963
		},
		{
			"buffer":0,
			"byteLength":432,
			"byteOffset":164652,
			"target":34962
		},
		{
			"buffer":0,
			"byteLength":432,
			"byteOffset":165084,
			"target":34962
		},
		{
			"buffer":0,
			"byteLength":288,
			"byteOffset":165516,
			"target":34962
		},
		{
			"buffer":0,
			"byteLength":576,
			"byteOffset":165804,
			"target":34962
		},
		{
			"buffer":0,
			"byteLength":108,
			"byteOffset":166380,
			"target":34963
		},
		{
			"buffer":0,
			"byteLength":528,
			"byteOffset":166488,
			"target":34962
		},
		{
			"buffer":0,
			"byteLength":528,
			"byteOffset":167016,
			"target":34962
		},
		{
			"buffer":0,
			"byteLength":352,
			"byteOffset":167544,
			"target":34962
		},
		{
			"buffer":0,
			"byteLength":704,
			"byteOffset":167896,
			"target":34962
		},
		{
			"buffer":0,
			"byteLength":120,
			"byteOffset":168600,
			"target":34963
		},
		{
			"buffer":0,
			"byteLength":384,
			"byteOffset":168720,
			"target":34962
		},
		{
			"buffer":0,
			"byteLength":384,
			"byteOffset":169104,
			"target":34962
		},
		{
			"buffer":0,
			"byteLength":256,
			"byteOffset":169488,
			"target":34962
		},
		{
			"buffer":0,
			"byteLength":512,
			"byteOffset":169744,
			"target":34962
		},
		{
			"buffer":0,
			"byteLength":84,
			"byteOffset":170256,
			"target":34963
		},
		{
			"buffer":0,
			"byteLength":468,
			"byteOffset":170340,
			"target":34962
		},
		{
			"buffer":0,
			"byteLength":468,
			"byteOffset":170808,
			"target":34962
		},
		{
			"buffer":0,
			"byteLength":312,
			"byteOffset":171276,
			"target":34962
		},
		{
			"buffer":0,
			"byteLength":624,
			"byteOffset":171588,
			"target":34962
		},
		{
			"buffer":0,
			"byteLength":102,
			"byteOffset":172212,
			"target":34963
		},
		{
			"buffer":0,
			"byteLength":432,
			"byteOffset":172316,
			"target":34962
		},
		{
			"buffer":0,
			"byteLength":432,
			"byteOffset":172748,
			"target":34962
		},
		{
			"buffer":0,
			"byteLength":288,
			"byteOffset":173180,
			"target":34962
		},
		{
			"buffer":0,
			"byteLength":576,
			"byteOffset":173468,
			"target":34962
		},
		{
			"buffer":0,
			"byteLength":96,
			"byteOffset":174044,
			"target":34963
		},
		{
			"buffer":0,
			"byteLength":480,
			"byteOffset":174140,
			"target":34962
		},
		{
			"buffer":0,
			"byteLength":480,
			"byteOffset":174620,
			"target":34962
		},
		{
			"buffer":0,
			"byteLength":320,
			"byteOffset":175100,
			"target":34962
		},
		{
			"buffer":0,
			"byteLength":640,
			"byteOffset":175420,
			"target":34962
		},
		{
			"buffer":0,
			"byteLength":96,
			"byteOffset":176060,
			"target":34963
		},
		{
			"buffer":0,
			"byteLength":468,
			"byteOffset":176156,
			"target":34962
		},
		{
			"buffer":0,
			"byteLength":468,
			"byteOffset":176624,
			"target":34962
		},
		{
			"buffer":0,
			"byteLength":312,
			"byteOffset":177092,
			"target":34962
		},
		{
			"buffer":0,
			"byteLength":624,
			"byteOffset":177404,
			"target":34962
		},
		{
			"buffer":0,
			"byteLength":96,
			"byteOffset":178028,
			"target":34963
		}
	],
	"samplers":[
		{
			"magFilter":9729,
			"minFilter":9987
		}
	],
	"buffers":[
		{
			"byteLength":178124,
			"uri":"truck.bin"
		}
	]
}
