{
	"asset":{
		"copyright":"Vladimir Shaleev",
		"generator":"Khronos glTF Blender I/O v4.3.47",
		"version":"2.0"
	},
	"scene":0,
	"scenes":[
		{
			"name":"Scene",
			"nodes":[
				0,
				1
			]
		}
	],
	"nodes":[
		{
			"mesh":0,
			"name":"wall_01|ch",
			"translation":[
				0,
				1.372140884399414,
				0
			]
		},
		{
			"mesh":1,
			"name":"wall_01_collider_ch",
			"translation":[
				0,
				1.372140884399414,
				0
			]
		}
	],
	"materials":[
		{
			"name":"base|0",
			"normalTexture":{
				"index":0
			},
			"pbrMetallicRoughness":{
				"baseColorTexture":{
					"index":1
				},
				"metallicRoughnessTexture":{
					"index":2
				}
			}
		},
		{
			"doubleSided":true,
			"name":"convex_hull_0",
			"pbrMetallicRoughness":{
				"baseColorFactor":[
					0.8002356290817261,
					0,
					0.5022248029708862,
					1
				],
				"metallicFactor":0,
				"roughnessFactor":0.5
			}
		},
		{
			"doubleSided":true,
			"name":"convex_hull_1",
			"pbrMetallicRoughness":{
				"baseColorFactor":[
					0.8001489639282227,
					0.5504964590072632,
					0,
					1
				],
				"metallicFactor":0,
				"roughnessFactor":0.5
			}
		},
		{
			"doubleSided":true,
			"name":"convex_hull_2",
			"pbrMetallicRoughness":{
				"baseColorFactor":[
					0.006015884689986706,
					0,
					0.8001489639282227,
					1
				],
				"metallicFactor":0,
				"roughnessFactor":0.5
			}
		},
		{
			"doubleSided":true,
			"name":"convex_hull_3",
			"pbrMetallicRoughness":{
				"baseColorFactor":[
					0,
					0.800133466720581,
					0.010487145744264126,
					1
				],
				"metallicFactor":0,
				"roughnessFactor":0.5
			}
		}
	],
	"meshes":[
		{
			"name":"wall_01|ch",
			"primitives":[
				{
					"attributes":{
						"POSITION":0,
						"NORMAL":1,
						"TEXCOORD_0":2
					},
					"indices":3,
					"material":0
				}
			]
		},
		{
			"name":"wall_01|ch.002",
			"primitives":[
				{
					"attributes":{
						"POSITION":4,
						"NORMAL":5,
						"TEXCOORD_0":6,
						"TANGENT":7
					},
					"indices":8,
					"material":1
				},
				{
					"attributes":{
						"POSITION":9,
						"NORMAL":10,
						"TEXCOORD_0":11,
						"TANGENT":12
					},
					"indices":13,
					"material":2
				},
				{
					"attributes":{
						"POSITION":14,
						"NORMAL":15,
						"TEXCOORD_0":16,
						"TANGENT":17
					},
					"indices":18,
					"material":3
				},
				{
					"attributes":{
						"POSITION":19,
						"NORMAL":20,
						"TEXCOORD_0":21,
						"TANGENT":22
					},
					"indices":23,
					"material":4
				}
			]
		}
	],
	"textures":[
		{
			"sampler":0,
			"source":0
		},
		{
			"sampler":0,
			"source":1
		},
		{
			"sampler":0,
			"source":2
		}
	],
	"images":[
		{
			"mimeType":"image/png",
			"name":"wall_01_normal",
			"uri":"wall_01_normal.png"
		},
		{
			"mimeType":"image/png",
			"name":"wall_01_base_color",
			"uri":"wall_01_base_color.png"
		},
		{
			"mimeType":"image/png",
			"name":"wall_01_metallic_roughness",
			"uri":"wall_01_metallic_roughness.png"
		}
	],
	"accessors":[
		{
			"bufferView":0,
			"componentType":5126,
			"count":736,
			"max":[
				1.9999998807907104,
				1.372140884399414,
				0.5
			],
			"min":[
				-1.9999998807907104,
				-1.372140884399414,
				-0.5
			],
			"type":"VEC3"
		},
		{
			"bufferView":1,
			"componentType":5126,
			"count":736,
			"type":"VEC3"
		},
		{
			"bufferView":2,
			"componentType":5126,
			"count":736,
			"type":"VEC2"
		},
		{
			"bufferView":3,
			"componentType":5123,
			"count":1824,
			"type":"SCALAR"
		},
		{
			"bufferView":4,
			"componentType":5126,
			"count":31,
			"max":[
				2,
				-0.8721409440040588,
				0.5
			],
			"min":[
				-2,
				-1.372140884399414,
				-0.5
			],
			"type":"VEC3"
		},
		{
			"bufferView":5,
			"componentType":5126,
			"count":31,
			"type":"VEC3"
		},
		{
			"bufferView":6,
			"componentType":5126,
			"count":31,
			"type":"VEC2"
		},
		{
			"bufferView":7,
			"componentType":5126,
			"count":31,
			"type":"VEC4"
		},
		{
			"bufferView":8,
			"componentType":5123,
			"count":48,
			"type":"SCALAR"
		},
		{
			"bufferView":9,
			"componentType":5126,
			"count":40,
			"max":[
				2,
				1.127859115600586,
				0.3453397750854492
			],
			"min":[
				-1.9999998807907104,
				-0.8721409440040588,
				-0.3453397750854492
			],
			"type":"VEC3"
		},
		{
			"bufferView":10,
			"componentType":5126,
			"count":40,
			"type":"VEC3"
		},
		{
			"bufferView":11,
			"componentType":5126,
			"count":40,
			"type":"VEC2"
		},
		{
			"bufferView":12,
			"componentType":5126,
			"count":40,
			"type":"VEC4"
		},
		{
			"bufferView":13,
			"componentType":5123,
			"count":60,
			"type":"SCALAR"
		},
		{
			"bufferView":14,
			"componentType":5126,
			"count":24,
			"max":[
				1.198965072631836,
				1.2636537551879883,
				0.42662668228149414
			],
			"min":[
				0.8010349273681641,
				-0.8721409440040588,
				-0.4266268014907837
			],
			"type":"VEC3"
		},
		{
			"bufferView":15,
			"componentType":5126,
			"count":24,
			"type":"VEC3"
		},
		{
			"bufferView":16,
			"componentType":5126,
			"count":24,
			"type":"VEC2"
		},
		{
			"bufferView":17,
			"componentType":5126,
			"count":24,
			"type":"VEC4"
		},
		{
			"bufferView":18,
			"componentType":5123,
			"count":36,
			"type":"SCALAR"
		},
		{
			"bufferView":19,
			"componentType":5126,
			"count":24,
			"max":[
				-0.8010348081588745,
				1.2636537551879883,
				0.42662668228149414
			],
			"min":[
				-1.1989649534225464,
				-0.8721409440040588,
				-0.4266268014907837
			],
			"type":"VEC3"
		},
		{
			"bufferView":20,
			"componentType":5126,
			"count":24,
			"type":"VEC3"
		},
		{
			"bufferView":21,
			"componentType":5126,
			"count":24,
			"type":"VEC2"
		},
		{
			"bufferView":22,
			"componentType":5126,
			"count":24,
			"type":"VEC4"
		},
		{
			"bufferView":23,
			"componentType":5123,
			"count":36,
			"type":"SCALAR"
		}
	],
	"bufferViews":[
		{
			"buffer":0,
			"byteLength":8832,
			"byteOffset":0,
			"target":34962
		},
		{
			"buffer":0,
			"byteLength":8832,
			"byteOffset":8832,
			"target":34962
		},
		{
			"buffer":0,
			"byteLength":5888,
			"byteOffset":17664,
			"target":34962
		},
		{
			"buffer":0,
			"byteLength":3648,
			"byteOffset":23552,
			"target":34963
		},
		{
			"buffer":0,
			"byteLength":372,
			"byteOffset":27200,
			"target":34962
		},
		{
			"buffer":0,
			"byteLength":372,
			"byteOffset":27572,
			"target":34962
		},
		{
			"buffer":0,
			"byteLength":248,
			"byteOffset":27944,
			"target":34962
		},
		{
			"buffer":0,
			"byteLength":496,
			"byteOffset":28192,
			"target":34962
		},
		{
			"buffer":0,
			"byteLength":96,
			"byteOffset":28688,
			"target":34963
		},
		{
			"buffer":0,
			"byteLength":480,
			"byteOffset":28784,
			"target":34962
		},
		{
			"buffer":0,
			"byteLength":480,
			"byteOffset":29264,
			"target":34962
		},
		{
			"buffer":0,
			"byteLength":320,
			"byteOffset":29744,
			"target":34962
		},
		{
			"buffer":0,
			"byteLength":640,
			"byteOffset":30064,
			"target":34962
		},
		{
			"buffer":0,
			"byteLength":120,
			"byteOffset":30704,
			"target":34963
		},
		{
			"buffer":0,
			"byteLength":288,
			"byteOffset":30824,
			"target":34962
		},
		{
			"buffer":0,
			"byteLength":288,
			"byteOffset":31112,
			"target":34962
		},
		{
			"buffer":0,
			"byteLength":192,
			"byteOffset":31400,
			"target":34962
		},
		{
			"buffer":0,
			"byteLength":384,
			"byteOffset":31592,
			"target":34962
		},
		{
			"buffer":0,
			"byteLength":72,
			"byteOffset":31976,
			"target":34963
		},
		{
			"buffer":0,
			"byteLength":288,
			"byteOffset":32048,
			"target":34962
		},
		{
			"buffer":0,
			"byteLength":288,
			"byteOffset":32336,
			"target":34962
		},
		{
			"buffer":0,
			"byteLength":192,
			"byteOffset":32624,
			"target":34962
		},
		{
			"buffer":0,
			"byteLength":384,
			"byteOffset":32816,
			"target":34962
		},
		{
			"buffer":0,
			"byteLength":72,
			"byteOffset":33200,
			"target":34963
		}
	],
	"samplers":[
		{
			"magFilter":9729,
			"minFilter":9987
		}
	],
	"buffers":[
		{
			"byteLength":33272,
			"uri":"wall_01.bin"
		}
	]
}
